<?xml version="1.0" encoding="UTF-8" standalone="no"?>
<!-- Created with Inkscape (http://www.inkscape.org/) -->

<svg
   width="191.87115mm"
   height="23.246559mm"
   viewBox="0 0 191.87116 23.246559"
   version="1.1"
   id="svg5"
   inkscape:version="1.1.2 (b8e25be833, 2022-02-05)"
   sodipodi:docname="AutoDealas.svg"
   xmlns:inkscape="http://www.inkscape.org/namespaces/inkscape"
   xmlns:sodipodi="http://sodipodi.sourceforge.net/DTD/sodipodi-0.dtd"
   xmlns="http://www.w3.org/2000/svg"
   xmlns:svg="http://www.w3.org/2000/svg">
  <sodipodi:namedview
     id="namedview7"
     pagecolor="#ffffff"
     bordercolor="#cccccc"
     borderopacity="1"
     inkscape:pageshadow="0"
     inkscape:pageopacity="1"
     inkscape:pagecheckerboard="0"
     inkscape:document-units="mm"
     showgrid="false"
     inkscape:zoom="1.28"
     inkscape:cx="467.57813"
     inkscape:cy="97.65625"
     inkscape:window-width="1920"
     inkscape:window-height="1017"
     inkscape:window-x="-8"
     inkscape:window-y="-8"
     inkscape:window-maximized="1"
     inkscape:current-layer="layer1"
     units="mm"
     fit-margin-left="-1.9428903e-16"
     fit-margin-top="0"
     fit-margin-right="0"
     fit-margin-bottom="0" />
  <defs
     id="defs2" />
  <g
     inkscape:label="Layer 1"
     inkscape:groupmode="layer"
     id="layer1"
     transform="translate(-13.298229,-108.07971)">
    <path
       style="fill:#000000;stroke-width:0.264583"
       d="m 170.49278,131.00142 -1.20682,-0.3249 -0.79997,-0.56963 -0.79998,-0.56963 -0.63858,-1.20374 -0.63859,-1.20375 h -1.87767 -1.87768 l -0.47889,-0.52917 -0.47889,-0.52917 h -2.74542 -2.74542 l -0.1661,-0.43283 -0.16609,-0.43284 0.26867,-0.42706 0.26868,-0.42706 2.68385,-0.0754 2.68385,-0.0754 v -0.086 -0.086 l -0.40469,-4.03543 -0.40469,-4.03544 0.30479,-0.36726 0.3048,-0.36725 h 2.82444 2.82443 l 1.94542,-3.24115 1.94542,-3.24114 0.40769,-0.33073 0.40769,-0.33073 h 8.38679 8.38678 l 0.52061,0.46302 0.52061,0.46302 2.71056,3.10885 2.71057,3.10886 h 4.72633 4.72633 l 0.27389,0.51177 0.27389,0.51177 v 5.00347 5.00347 l -0.48385,0.43789 -0.48385,0.43788 h -2.28748 -2.28748 l -0.43461,0.8599 -0.43463,0.85989 -0.56436,0.62106 -0.56436,0.62107 -1.05833,0.54531 -1.05834,0.54531 h -1.45521 -1.4552 l -1.0912,-0.55946 -1.0912,-0.55946 -0.69482,-0.82574 -0.69481,-0.82575 -0.1609,-0.64106 -0.1609,-0.64107 h -5.62776 -5.62776 l -0.3276,0.79089 -0.3276,0.7909 -1.04124,0.9407 -1.04125,0.94071 -0.58148,0.21574 -0.58148,0.21575 -0.92605,0.15093 -0.92604,0.15094 z m 3.36411,-2.41872 0.6461,-0.42335 0.51555,-0.84552 0.51554,-0.84552 0.001,-0.87304 0.001,-0.87303 -0.36979,-0.71509 -0.36979,-0.71509 -0.51979,-0.47041 -0.5198,-0.47041 -0.88176,-0.25288 -0.88176,-0.25289 -0.95324,0.25668 -0.95323,0.25668 -0.7589,0.79211 -0.75889,0.79212 -0.11669,1.40714 -0.1167,1.40714 0.74278,0.88274 c 0.98044,1.10458 1.53384,1.21606 3.2444,1.48841 l 0.88788,-0.12245 0.6461,-0.42334 z m -2.81875,-2.51127 -0.2832,-0.52916 0.2832,-0.52917 0.28321,-0.52917 h 0.46694 0.46694 l 0.3175,0.3175 0.3175,0.3175 v 0.58024 0.58023 l -0.41852,0.1606 -0.41851,0.1606 h -0.36593 -0.36592 z m 25.13542,2.41658 0.66146,-0.46635 0.48589,-0.97738 0.4859,-0.97738 -0.18136,-1.07344 -0.18135,-1.07343 -0.86954,-0.86954 -0.86953,-0.86953 -0.79317,-0.15863 -0.79316,-0.15864 -0.99074,0.27356 -0.99074,0.27355 -0.60589,0.6059 -0.6059,0.6059 -0.26502,0.95983 -0.26503,0.95984 0.26974,0.97692 0.26974,0.97692 0.7769,0.72573 0.7769,0.72573 0.58568,0.12122 0.58568,0.12121 0.92604,-0.11782 0.92604,-0.11782 z m -2.89987,-2.27157 -0.31883,-0.38417 0.088,-0.44737 0.088,-0.44737 0.46302,-0.29159 0.46302,-0.29159 0.46302,0.29159 0.46303,0.29159 0.088,0.44737 0.088,0.44737 -0.31882,0.38417 -0.31883,0.38416 h -0.46438 -0.46437 z m -26.78972,-2.39258 0.31807,-1.18924 1.0493,-1.0493 1.0493,-1.04929 1.47998,-0.43025 1.47998,-0.43024 1.35526,0.32512 1.35525,0.32512 1.14555,1.05593 1.14555,1.05593 0.45736,1.28773 0.45736,1.28773 h 5.36186 5.36185 v -0.5423 -0.54231 l 0.42783,-0.84676 0.42782,-0.84675 0.56436,-0.62106 0.56437,-0.62107 1.05833,-0.54531 1.05834,-0.54531 h 1.4552 1.45521 l 1.11269,0.57042 1.1127,0.57043 0.73939,0.92098 0.73939,0.92098 0.28744,0.99788 0.28744,0.99789 1.63079,0.0788 1.63079,0.0788 v -1.73242 -1.73241 h -0.87313 -0.87312 l -0.3175,-0.3175 -0.3175,-0.3175 v -0.6035 -0.6035 l 0.59531,-0.12703 0.59531,-0.12704 0.52917,-0.0801 0.52917,-0.0801 v -1.00096 -1.00096 l -9.9553,0.0183 -9.95529,0.0183 -0.69419,-0.26393 -0.69418,-0.26392 v -3.32767 -3.32767 l -1.35709,0.08 -1.35709,0.08 0.0483,2.96244 0.0483,2.96244 -0.55093,0.55093 -0.55093,0.55093 -7.33455,-0.0239 -7.33454,-0.0238 0.0264,0.28079 0.0265,0.28079 0.0397,0.77854 0.0397,0.77853 1.12448,0.0814 1.12448,0.0814 0.0864,0.60988 0.0865,0.60987 -0.31729,0.38232 -0.31729,0.38231 h -0.76135 -0.76136 v 0.49224 0.49223 l 0.16825,1.22756 0.16826,1.22755 h 1.09979 1.09978 z m 10.24272,-11.11388 v -2.38125 l -2.01107,-0.0766 -2.01106,-0.0766 -1.36237,2.27955 -1.36238,2.27955 v 0.25232 0.25231 l 3.37344,-0.074 3.37344,-0.074 z m 15.1855,2.05052 -0.35741,-0.46302 -1.81968,-2.05052 -1.81969,-2.05053 h -2.08863 -2.08864 v 2.51355 2.51354 h 4.26573 4.26573 z m -160.309455,10.60887 -0.396875,-0.15904 -0.598285,-0.5444 -0.598285,-0.54441 -0.274176,-1.0182 -0.274175,-1.01821 0.418982,-2.43861 0.418982,-2.43861 0.265239,-0.99218 0.26524,-0.99219 h 1.727423 1.727423 l -0.14467,0.46302 -0.14467,0.46302 -0.537329,2.62199 -0.53733,2.62199 0.405686,0.61916 0.405686,0.61915 h 0.760242 0.760242 l 0.770178,-0.87718 0.770178,-0.87719 0.620406,-2.82698 0.620405,-2.82698 h 1.679534 1.679533 v 0.12686 0.12687 l -0.932143,4.4372 -0.932143,4.43719 -0.144021,0.46302 -0.144021,0.46302 h -1.47045 -1.470452 l 0.156395,-0.78197 0.156396,-0.78197 -1.150529,0.81096 -1.150529,0.81097 -1.155606,0.0964 -1.155606,0.0964 z m 13.316146,-0.2128 -0.839065,-0.36499 -0.285414,-0.5333 -0.285417,-0.53331 0.0065,-1.27416 0.0065,-1.27417 0.260258,-1.19062 0.260255,-1.19063 0.131357,-0.58004 0.131361,-0.58004 -1.003404,-0.0814 -1.003405,-0.0814 0.224017,-1.12448 0.224017,-1.12448 h 1.039636 1.039635 l 0.170172,-1.06419 0.170172,-1.0642 0.295976,-0.19257 0.295974,-0.19258 1.545,-0.4321 1.544997,-0.4321 -0.178062,0.96127 -0.178062,0.96127 -0.140094,0.71188 -0.140097,0.71189 1.16423,0.0819 1.164233,0.0819 -0.221067,1.1105 -0.221068,1.11051 -1.233302,0.0801 -1.233302,0.0801 -0.350179,1.71979 -0.350179,1.71979 0.07493,0.92604 0.07494,0.92604 0.96048,0.0802 0.96048,0.0802 -0.257937,1.01619 -0.257937,1.0162 -0.801762,0.16035 -0.801761,0.16035 -0.56224,-0.0104 -0.562239,-0.0104 -0.839063,-0.36499 z m 9.510795,0.1288 -0.853268,-0.20273 -0.680718,-0.44602 -0.680717,-0.44602 -0.515546,-0.84552 -0.515546,-0.84552 -0.0011,-1.52985 -0.0011,-1.52985 0.409504,-0.98008 0.409504,-0.98008 0.582683,-0.62467 0.582684,-0.62468 1.058334,-0.55393 1.058333,-0.55394 1.984375,-0.0156 1.984375,-0.0156 1.058333,0.55256 1.058334,0.55255 0.59096,1.03495 0.59096,1.03494 -0.0016,1.45521 -0.0016,1.4552 -0.503113,1.10816 -0.503111,1.10815 -1.091975,0.79103 -1.091978,0.79102 -1.32254,0.28364 -1.322541,0.28363 -0.714582,-0.0271 -0.714581,-0.0271 -0.853268,-0.20273 z m 3.335887,-2.55581 0.615988,-0.43145 0.368924,-0.88296 0.368927,-0.88297 v -0.98363 -0.98363 l -0.575286,-0.61237 -0.575289,-0.61237 h -0.688758 -0.688758 l -0.58955,0.41294 -0.589547,0.41294 -0.395364,0.76455 -0.395365,0.76455 v 1.12056 1.12057 l 0.575287,0.61236 0.575288,0.61237 h 0.688758 0.688758 z m 24.288928,2.42938 -1.009701,-0.36011 -0.538741,-0.48755 -0.53874,-0.48755 -0.369787,-0.71509 -0.369787,-0.71509 0.0058,-1.5345 0.0058,-1.53449 0.481822,-1.0606 0.481822,-1.06061 0.951654,-0.83556 0.951653,-0.83556 1.502688,-0.31196 1.502688,-0.31195 1.157811,0.17362 1.157809,0.17362 0.790228,0.66494 0.790231,0.66493 0.288888,0.97269 0.288891,0.97269 -0.08567,1.32292 -0.08567,1.32291 -3.638021,0.0736 -3.638021,0.0736 v 0.26915 0.26914 l 0.649433,0.64943 0.649431,0.64943 h 1.535128 1.535126 l 0.817091,-0.23433 0.817094,-0.23434 -0.189918,1.03857 -0.189917,1.03858 -0.119936,0.11994 -0.119933,0.11993 -1.404996,0.26645 -1.404995,0.26645 -0.823783,-0.0116 -0.823783,-0.0116 -1.009703,-0.3601 z m 4.846161,-6.19557 v -0.49349 l -0.54837,-0.69714 -0.54837,-0.69714 h -0.659649 -0.659648 l -0.509035,0.27243 -0.509034,0.27243 -0.399614,0.77276 -0.399613,0.77277 v 0.14543 0.14543 h 2.116666 2.116667 z m 5.923426,6.39695 -0.558867,-0.10989 -0.733983,-0.76611 -0.733986,-0.76612 v -1.06372 -1.06372 l 0.455271,-0.69483 0.455269,-0.69483 1.234456,-0.54992 1.234456,-0.54992 2.0487,-0.0206 2.0487,-0.0206 0.002,-0.46302 0.002,-0.46302 -0.529163,-0.52917 -0.529167,-0.52916 h -1.173401 -1.1734 l -0.715378,0.27198 -0.715378,0.27199 -0.127357,-0.12736 -0.127357,-0.12735 0.172865,-0.92145 0.172866,-0.92146 1.496311,-0.31063 1.496314,-0.31063 1.162495,0.15934 1.16249,0.15933 0.93681,0.44455 0.936796,0.44454 0.38879,0.93049 0.38878,0.9305 -0.43845,2.39735 -0.43846,2.39735 -0.26939,1.25677 -0.26938,1.25677 h -1.300986 -1.300997 v -0.70758 -0.70758 l -0.61909,0.58161 -0.619091,0.5816 -0.900517,0.25827 -0.900518,0.25826 -0.530912,-0.036 -0.530913,-0.036 z m 3.616229,-2.20714 0.509035,-0.27243 0.399613,-0.77277 0.399614,-0.77277 v -0.27772 -0.27772 h -1.264045 -1.264046 l -0.588037,0.41188 -0.588039,0.41187 v 0.59354 0.59354 l 0.3175,0.3175 0.3175,0.3175 h 0.625935 0.625936 z m 14.640013,2.20714 -0.55887,-0.10989 -0.73398,-0.76611 -0.73399,-0.76612 v -1.06372 -1.06372 l 0.45528,-0.69483 0.45526,-0.69483 1.23446,-0.54992 1.23446,-0.54992 2.0487,-0.0206 2.0487,-0.0206 0.002,-0.46302 0.002,-0.46302 -0.52917,-0.52917 -0.52917,-0.52916 h -1.1734 -1.1734 l -0.71538,0.27198 -0.71537,0.27199 -0.12736,-0.12736 -0.12736,-0.12735 0.17287,-0.92145 0.17286,-0.92146 1.49632,-0.31063 1.49631,-0.31063 1.16249,0.15934 1.1625,0.15933 0.9368,0.44455 0.93681,0.44454 0.38878,0.93049 0.38879,0.9305 -0.43846,2.39735 -0.43846,2.39735 -0.26938,1.25677 -0.26939,1.25677 h -1.30099 -1.30099 v -0.70758 -0.70758 l -0.61909,0.58161 -0.61909,0.5816 -0.90052,0.25827 -0.90052,0.25826 -0.53091,-0.036 -0.53091,-0.036 z m 3.61623,-2.20714 0.50903,-0.27243 0.39962,-0.77277 0.39961,-0.77277 v -0.27772 -0.27772 h -1.26404 -1.26405 l -0.58804,0.41188 -0.58804,0.41187 v 0.59354 0.59354 l 0.3175,0.3175 0.3175,0.3175 h 0.62594 0.62593 z m 7.18437,2.0872 -1.39994,-0.2711 0.17849,-0.5734 0.1785,-0.5734 0.23293,-0.62221 0.23293,-0.62221 0.45935,0.19122 0.45934,0.19123 1.21819,0.13021 1.21819,0.13021 0.58371,-0.31239 0.58371,-0.31239 -0.0853,-0.44306 -0.0853,-0.44306 -1.71658,-0.93099 -1.71657,-0.93099 -0.25143,-1.01524 -0.25142,-1.01524 0.39052,-0.69576 0.39052,-0.69576 0.85596,-0.57683 0.85597,-0.57684 1.28462,-0.17668 1.28463,-0.17668 1.53371,0.28352 1.5337,0.28352 0.0927,0.0927 0.0927,0.0927 -0.39662,0.94927 -0.39663,0.94926 -0.86187,-0.24718 -0.86187,-0.24718 h -0.81107 -0.81108 l -0.46184,0.33771 -0.46185,0.33771 0.16473,0.42928 0.16473,0.42927 1.50904,0.65446 1.50904,0.65445 0.33781,0.40703 0.33781,0.40704 0.13215,0.8835 0.13215,0.88351 -0.47568,0.91704 -0.47568,0.91704 -0.83055,0.47923 -0.83055,0.47924 -1.68299,0.10968 -1.683,0.10968 z m 23.8442,-0.0838 -0.83906,-0.36499 -0.28542,-0.53331 -0.28541,-0.5333 0.006,-1.27417 0.006,-1.27416 0.26025,-1.19063 0.26026,-1.19062 0.13136,-0.58004 0.13136,-0.58004 -1.00341,-0.0814 -1.0034,-0.0814 0.22401,-1.12448 0.22402,-1.12448 h 1.03964 1.03963 l 0.17017,-1.0642 0.17018,-1.06419 0.29597,-0.19258 0.29598,-0.19257 1.545,-0.4321 1.54499,-0.4321 -0.17806,0.96127 -0.17806,0.96126 -0.1401,0.71189 -0.14009,0.71188 1.16423,0.0819 1.16423,0.0819 -0.22107,1.11051 -0.22106,1.1105 -1.23331,0.0801 -1.2333,0.0801 -0.35018,1.71979 -0.35018,1.7198 0.0749,0.92604 0.0749,0.92604 0.96048,0.0802 0.96048,0.0802 -0.25793,1.01619 -0.25794,1.01619 -0.80176,0.16035 -0.80177,0.16036 -0.56223,-0.0104 -0.56224,-0.0104 -0.83907,-0.36499 z m -131.542868,-1.42955 0.884025,-1.55067 3.042708,-5.19676 3.042709,-5.19676 2.238841,0.0667 2.238841,0.0667 0.988996,6.08542 0.988995,6.08541 0.01331,0.59532 0.01331,0.59531 h -1.719791 -1.719792 v -0.62839 -0.62838 l -0.165365,-0.82683 -0.165364,-0.82682 -2.678906,5.3e-4 -2.678907,5.3e-4 -0.76004,1.45458 -0.76004,1.45458 h -1.843777 -1.843776 l 0.884025,-1.55067 z m 9.394579,-4.6009 -0.147295,-0.85989 -0.177557,-1.78594 -0.177557,-1.78594 -0.167614,0.005 -0.167614,0.005 -1.392644,2.64043 -1.392644,2.64043 h 1.88511 1.885111 z m 40.091523,5.59164 0.126257,-0.6307 1.300416,-6.18248 1.300417,-6.18249 3.571875,0.12182 3.571875,0.12181 1.058333,0.45231 1.058333,0.45231 0.737307,0.70622 0.737304,0.70622 0.41852,1.43965 0.418518,1.43966 -0.168241,1.43148 -0.168243,1.43149 -0.405188,0.97267 -0.405188,0.97266 -0.950855,0.97584 -0.950854,0.97584 -1.35133,0.58847 -1.351333,0.58848 -4.33709,0.12472 -4.337087,0.12473 z m 8.151048,-2.65216 0.926042,-0.56428 0.396875,-0.54977 0.396875,-0.54977 0.310599,-0.80319 0.3106,-0.8032 0.02013,-1.38488 0.02013,-1.38489 -0.75442,-0.84435 -0.754419,-0.84434 -1.626831,-0.11767 -1.62683,-0.11768 v 0.16551 0.1655 l -0.79375,3.74457 -0.79375,3.74456 v 0.35507 0.35506 l 1.521354,-0.001 1.521354,-0.001 0.926042,-0.56427 z m 31.653208,-2.14573 1.14008,-5.35781 0.42244,-1.91823 0.42244,-1.91823 h 1.71958 1.71957 l -0.14328,0.46302 -0.14327,0.46302 -1.33661,6.35 -1.33661,6.35 -0.14327,0.46302 -0.14328,0.46302 h -1.65893 -1.65894 z m 27.18586,4.7625 0.16329,-0.59531 0.16597,-0.99219 0.16596,-0.99219 h 1.55369 1.55368 v 0.25157 0.25156 l -0.28651,1.33594 -0.28651,1.33593 h -1.59643 -1.59643 z m 6.94539,-4.7625 1.14008,-5.35781 0.42244,-1.91823 0.42244,-1.91823 h 1.71958 1.71957 l -0.14328,0.46302 -0.14327,0.46302 -1.33661,6.35 -1.33661,6.35 -0.14327,0.46302 -0.14328,0.46302 h -1.65893 -1.65894 z m 14.31814,1.36787 -0.46302,-0.26968 v -0.62001 -0.62 l 0.41851,-0.1606 0.41852,-0.1606 h 2.73484 2.73485 l 0.41851,0.1606 0.41852,0.1606 v 0.62384 0.62384 l -0.51178,0.2739 -0.51177,0.27389 -2.59708,-0.008 -2.59708,-0.008 z m 3.83527,-4.78218 -0.32954,-0.32954 v -0.44385 -0.44386 l 0.37841,-0.31405 0.37841,-0.31405 0.98386,0.0832 0.98385,0.0832 0.29003,0.46302 0.29002,0.46302 -0.29017,0.46302 -0.29018,0.46302 -1.03258,0.0782 -1.03258,0.0782 z m -2.65042,-4.76709 -0.32496,-0.32495 v -0.44385 -0.44386 l 0.36794,-0.30535 0.36793,-0.30536 3.2418,0.0745 3.24179,0.0745 0.29153,0.46302 0.29152,0.46302 -0.29156,0.46302 -0.29155,0.46302 -3.28475,0.0736 -3.28474,0.0736 z m 10.40957,-0.10573 -0.41578,-0.41577 v -0.22679 -0.22678 l 0.41578,-0.41577 0.41577,-0.41578 h 0.13079 0.13078 l 0.51178,0.27389 0.51177,0.2739 v 0.46694 0.46694 l -0.3175,0.3175 -0.3175,0.3175 h -0.32506 -0.32506 z"
       id="path1280"
       sodipodi:nodetypes="ccccccccccccccccccccccccccccccccccccccccccccccccccccccccccccccccccccccccccccccccccccccccccccccccccccccccccccccccccccccccccccccccccccccccccccccccccccccccccccccccccccccccccccccccccccccccccccccccccccccccccccccccccccccccccccccccccccccccccccccccccccccccccccccccccccccccccccccccccccccccccccccccccccccccccccccccccccccccccccccccccccccccccccccccccccccccccccccccccccccccccccccccccccccccccccccccccccccccccccccccccccccccccccccccccccccccccccccccccccccccccccccccccccccccccccccccccccccccccccccccccccccccccccccccccccccccccccccccccccccccccccccccccccccccccccccccccccccccccccccccccccccccccccccccccccccccccccccccccccccccccccccccccccccccccccccccccccccccccccccccccccccccccccccccccccccccccccccccccccccccccccccccccccccccccccccccccccccccccccccccccccccccccccccccccccccccccccccccccccccccccccccccccccccccccccccccccccccccccccccccccccccccccccccccccccccccccccccccccccccccccccccccccccccccccc" />
    <path
       style="fill:#00ccf2;fill-opacity:1;stroke:#000000;stroke-width:0.0225629;stroke-opacity:0.530952;stop-color:#000000"
       d=""
       id="path8942"
       transform="scale(0.26458333)" />
    <path
       style="fill:#00ccf2;fill-opacity:1;stroke:#000000;stroke-width:0.0019943;stroke-opacity:0.530952;stop-color:#000000"
       d=""
       id="path8981"
       transform="scale(0.26458333)" />
    <path
       style="fill:#00ccf2;fill-opacity:1;stroke:#000000;stroke-width:0.0019943;stroke-opacity:0.530952;stop-color:#000000"
       d=""
       id="path9170"
       transform="scale(0.26458333)" />
    <path
       style="fill:#00ccf2;fill-opacity:1;stroke:#000000;stroke-width:0.0019943;stroke-opacity:0.530952;stop-color:#000000"
       d=""
       id="path9248"
       transform="scale(0.26458333)" />
    <path
       style="fill:#00ccf2;fill-opacity:1;stroke:#000000;stroke-width:0.0019943;stroke-opacity:0.530952;stop-color:#000000"
       d=""
       id="path9361"
       transform="scale(0.26458333)" />
    <path
       style="fill:#00ccf2;fill-opacity:1;stroke:#000000;stroke-width:0.0019943;stroke-opacity:0.530952;stop-color:#000000"
       d=""
       id="path9513"
       transform="scale(0.26458333)" />
    <path
       style="fill:#00ccf2;fill-opacity:1;stroke:#000000;stroke-width:0.0019943;stroke-opacity:0.530952;stop-color:#000000"
       d=""
       id="path9552"
       transform="scale(0.26458333)" />
    <path
       style="fill:#00ccf2;fill-opacity:1;stroke:#000000;stroke-width:0.0019943;stroke-opacity:0.530952;stop-color:#000000"
       d=""
       id="path9630"
       transform="scale(0.26458333)" />
    <path
       style="fill:#00ccf2;fill-opacity:1;stroke:#000000;stroke-width:0.0019943;stroke-opacity:0.530952;stop-color:#000000"
       d=""
       id="path9708"
       transform="scale(0.26458333)" />
    <path
       style="fill:#00ccf2;fill-opacity:1;stroke:#000000;stroke-width:0.0019943;stroke-opacity:0.530952;stop-color:#000000"
       d=""
       id="path9747"
       transform="scale(0.26458333)" />
    <path
       style="fill:#00ccf2;fill-opacity:1;stroke:#000000;stroke-width:0.0019943;stroke-opacity:0.530952;stop-color:#000000"
       d=""
       id="path9864"
       transform="scale(0.26458333)" />
    <path
       style="fill:#00ccf2;fill-opacity:1;stroke:#000000;stroke-width:0.0019943;stroke-opacity:0.530952;stop-color:#000000"
       d=""
       id="path9903"
       transform="scale(0.26458333)" />
    <path
       style="fill:#00ccf2;fill-opacity:1;stroke:#000000;stroke-width:0.0019943;stroke-opacity:0.530952;stop-color:#000000"
       d=""
       id="path9942"
       transform="scale(0.26458333)" />
    <path
       style="fill:#00ccf2;fill-opacity:1;stroke:#000000;stroke-width:0.0019943;stroke-opacity:0.530952;stop-color:#000000"
       d=""
       id="path10059"
       transform="scale(0.26458333)" />
    <path
       style="fill:#00ccf2;fill-opacity:1;stroke:#000000;stroke-width:0.0019943;stroke-opacity:0.530952;stop-color:#000000"
       d=""
       id="path10137"
       transform="scale(0.26458333)" />
    <path
       style="fill:#00ccf2;fill-opacity:1;stroke:#000000;stroke-width:0.0019943;stroke-opacity:0.530952;stop-color:#000000"
       d=""
       id="path10176"
       transform="scale(0.26458333)" />
    <path
       style="fill:#00ccf2;fill-opacity:1;stroke:#000000;stroke-width:0.0019943;stroke-opacity:0.530952;stop-color:#000000"
       d=""
       id="path10215"
       transform="scale(0.26458333)" />
    <path
       style="fill:#00ccf2;fill-opacity:1;stroke:#000000;stroke-width:0.0019943;stroke-opacity:0.530952;stop-color:#000000"
       d=""
       id="path10254"
       transform="scale(0.26458333)" />
    <path
       style="fill:#00ccf2;fill-opacity:1;stroke:#000000;stroke-width:0.0019943;stroke-opacity:0.530952;stop-color:#000000"
       d=""
       id="path10293"
       transform="scale(0.26458333)" />
    <path
       style="fill:#00ccf2;fill-opacity:1;stroke:#000000;stroke-width:0.0019943;stroke-opacity:0.530952;stop-color:#000000"
       d=""
       id="path10371"
       transform="scale(0.26458333)" />
    <path
       style="fill:#00ccf2;fill-opacity:1;stroke:#000000;stroke-width:0.0019943;stroke-opacity:0.530952;stop-color:#000000"
       d=""
       id="path10410"
       transform="scale(0.26458333)" />
    <path
       style="fill:#00ccf2;fill-opacity:1;stroke:#000000;stroke-width:0.0019943;stroke-opacity:0.530952;stop-color:#000000"
       d=""
       id="path10566"
       transform="scale(0.26458333)" />
    <path
       style="fill:#00ccf2;fill-opacity:1;stroke:#000000;stroke-width:0.0019943;stroke-opacity:0.530952;stop-color:#000000"
       d=""
       id="path10605"
       transform="scale(0.26458333)" />
    <path
       style="fill:#00ccf2;fill-opacity:1;stroke:#000000;stroke-width:0.0019943;stroke-opacity:0.530952;stop-color:#000000"
       d=""
       id="path10800"
       transform="scale(0.26458333)" />
    <path
       style="fill:#00ccf2;fill-opacity:1;stroke:#000000;stroke-width:0.0019943;stroke-opacity:0.530952;stop-color:#000000"
       d=""
       id="path10839"
       transform="scale(0.26458333)" />
    <path
       style="fill:#00ccf2;fill-opacity:1;stroke:#000000;stroke-width:0.0019943;stroke-opacity:0.530952;stop-color:#000000"
       d=""
       id="path10917"
       transform="scale(0.26458333)" />
    <path
       style="fill:#00ccf2;fill-opacity:1;stroke:#000000;stroke-width:0.0019943;stroke-opacity:0.530952;stop-color:#000000"
       d=""
       id="path10995"
       transform="scale(0.26458333)" />
    <path
       style="fill:#00ccf2;fill-opacity:1;stroke:#000000;stroke-width:0.0019943;stroke-opacity:0.530952;stop-color:#000000"
       d=""
       id="path11034"
       transform="scale(0.26458333)" />
    <path
       style="fill:#00ccf2;fill-opacity:1;stroke:#000000;stroke-width:0.0019943;stroke-opacity:0.530952;stop-color:#000000"
       d=""
       id="path11112"
       transform="scale(0.26458333)" />
    <path
       style="fill:#00ccf2;fill-opacity:1;stroke:#000000;stroke-width:0.00147638;stroke-opacity:0.530952;stop-color:#000000"
       d=""
       id="path11229"
       transform="scale(0.26458333)" />
    <path
       style="fill:#00ccf2;fill-opacity:1;stroke:#000000;stroke-width:0.00147638;stroke-opacity:0.530952;stop-color:#000000"
       d="m 722.14575,430.72194 c 0.003,-0.001 0.006,-9.9e-4 0.007,3.1e-4 10e-4,0.001 -10e-4,0.002 -0.005,0.002 -0.005,-1.9e-4 -0.005,-10e-4 -0.002,-0.002 z"
       id="path11268"
       transform="scale(0.26458333)" />
    <path
       style="fill:#00ccf2;fill-opacity:1;stroke:#000000;stroke-width:0.00147638;stroke-opacity:0.530952;stop-color:#000000"
       d=""
       id="path11344"
       transform="scale(0.26458333)" />
    <path
       style="fill:#00ccf2;fill-opacity:1;stroke:#000000;stroke-width:0.00147638;stroke-opacity:0.530952;stop-color:#000000"
       d=""
       id="path11383"
       transform="scale(0.26458333)" />
    <path
       style="fill:#00ccf2;fill-opacity:1;stroke:#000000;stroke-width:0.00147638;stroke-opacity:0.530952;stop-color:#000000"
       d="m 721.04199,434.01858 c 0.0188,-7.2e-4 0.0496,-7.2e-4 0.0684,0 0.0188,7.1e-4 0.003,0.001 -0.0342,0.001 -0.0376,0 -0.053,-5.9e-4 -0.0342,-0.001 z"
       id="path11691"
       transform="scale(0.26458333)" />
    <path
       style="fill:#00ccf2;fill-opacity:1;stroke:#000000;stroke-width:0.00147638;stroke-opacity:0.530952;stop-color:#000000"
       d="m 710.23154,416.49419 c -473.48769,-277.66279 -236.74385,-138.8314 0,0 z"
       id="path12549"
       transform="scale(0.26458333)"
       sodipodi:nodetypes="cc" />
    <path
       style="fill:#00ccf2;fill-opacity:1;stroke:#000000;stroke-width:0.00147638;stroke-opacity:0.530952;stop-color:#000000"
       d="m 711.9375,418.44667 c -1.25532,-1.41513 -1.64649,-1.856 -1.67091,-1.88319 l -0.0272,-0.0303 h 0.0134 c 0.0129,0 0.0441,0.0346 0.86857,0.96369 0.47035,0.53003 0.93833,1.05739 1.03998,1.17191 0.17678,0.19918 0.18475,0.20882 0.18359,0.22203 -10e-4,0.0134 -0.012,0.002 -0.40746,-0.44416 z"
       id="path12588"
       transform="scale(0.26458333)" />
    <path
       style="fill:#00ccf2;fill-opacity:1;stroke:#000000;stroke-width:0.00147638;stroke-opacity:0.530952;stop-color:#000000"
       d=""
       id="path12666"
       transform="scale(0.26458333)" />
    <path
       style="fill:#00ccf2;fill-opacity:1;stroke:#000000;stroke-width:0.00147638;stroke-opacity:0.530952;stop-color:#000000"
       d=""
       id="path12705"
       transform="scale(0.26458333)" />
    <path
       style="fill:#00ccf2;fill-opacity:1;stroke:#000000;stroke-width:0.00147638;stroke-opacity:0.530952;stop-color:#000000"
       d="m 712.30269,418.85072 c -0.0397,-0.0419 -0.18168,-0.20155 -1.30011,-1.46205 -0.41461,-0.46728 -0.75211,-0.85024 -0.75,-0.851 0.0107,-0.004 0.002,-0.0131 1.37032,1.52874 0.72007,0.8116 0.6862,0.77319 0.709,0.80381 0.0208,0.0279 0.007,0.0187 -0.0292,-0.0195 z"
       id="path12744"
       transform="scale(0.26458333)" />
    <path
       style="fill:#00ccf2;fill-opacity:1;stroke:#000000;stroke-width:0.00147638;stroke-opacity:0.530952;stop-color:#000000"
       d=""
       id="path12783"
       transform="scale(0.26458333)" />
    <path
       style="fill:#00ccf2;fill-opacity:1;stroke:#000000;stroke-width:0.011811;stroke-opacity:0.530952;stop-color:#000000"
       d="m 642.45312,434.60313 v -0.9392 l 5.14593,-8.61322 c 2.83026,-4.73726 5.14748,-8.61598 5.14939,-8.61937 5.2383,0.10938 10.44653,0.1657 15.19496,0.5591 v 9 9.00011 l -0.90434,0.0244 c -1.23534,0.0333 -14.26541,0.24283 -19.46094,0.40513 -2.37689,0.0743 -4.49946,0.11732 -4.71875,0.11898 l -0.41599,0.0108 z"
       id="path12822"
       transform="scale(0.26458333)"
       sodipodi:nodetypes="ccsccccssscc" />
    <path
       style="fill:#00ccf2;fill-opacity:1;stroke:#000000;stroke-width:0.00147638;stroke-opacity:0.530952;stop-color:#000000"
       d="m 659.34961,416.76721 c -1.78643,-0.1044 -3.62513,-0.26381 -4.68713,-0.2751 -0.19208,-0.007 -0.35013,-0.0145 -0.35124,-0.0156 2.42297,0.0865 4.86631,0.18058 7.13602,0.26897 0.0497,0.005 -0.11138,4e-4 -0.53711,-0.0149 -0.51937,-0.0313 -1.04176,-0.004 -1.56051,0.0365 z"
       id="path12861"
       transform="scale(0.26458333)"
       sodipodi:nodetypes="ccccccc" />
    <path
       style="fill:#00ccf2;fill-opacity:1;stroke:#000000;stroke-width:0.00208791;stroke-opacity:0.530952;stop-color:#000000"
       d=""
       id="path13735"
       transform="scale(0.26458333)" />
    <path
       style="fill:#00ccf2;fill-opacity:1;stroke:#000000;stroke-width:0.00208791;stroke-opacity:0.530952;stop-color:#000000"
       d=""
       id="path13811"
       transform="scale(0.26458333)" />
    <path
       style="fill:#00ccf2;fill-opacity:1;stroke:#000000;stroke-width:0.00147638;stroke-opacity:0.530952;stop-color:#000000"
       d=""
       id="path13850"
       transform="scale(0.26458333)" />
    <path
       style="fill:#6d91ac;fill-opacity:1;stroke:#000000;stroke-width:0.133626;stroke-opacity:0.530952;stop-color:#000000"
       d="m 644.67788,487.32784 c -2.98984,-1.25976 -3.42309,-2.08816 -5.91674,-4.83096 -3.26809,-3.59463 -2.94534,-3.29539 -2.6755,-9.99488 -0.116,-6.56328 6.76569,-10.87088 10.03852,-11.47898 6.98541,-1.63095 14.42462,1.4611 16.50318,7.74622 3.84257,7.45304 -0.23578,14.04274 -5.33139,17.46508 -2.15974,1.43613 -2.97539,1.9242 -5.96225,1.99703 l -3.32773,-0.0988 z m 8.71088,-12.19279 c -0.73685,-6.96709 -7.90683,-3.78261 -6.94539,1.3554 1.53621,3.07483 6.73846,1.98243 6.94539,-1.3554 z"
       id="path32738"
       transform="scale(0.26458333)"
       sodipodi:nodetypes="csccccsccccc" />
    <path
       style="fill:#00ccf2;fill-opacity:1;stroke:#000000;stroke-width:0.0167033;stroke-opacity:0.530952;stop-color:#000000"
       d="m 694.44515,425.98764 v -9.47965 l 7.87761,0.003 7.87761,0.003 1.02805,1.15718 c 0.56542,0.63644 3.21044,3.61314 5.87782,6.61488 2.66738,3.00174 5.30817,5.9749 5.86842,6.60703 0.8809,0.99392 1.64708,1.95242 3.61237,4.51913 0.0338,0.0442 -3.18302,0.0552 -16.04979,0.0552 h -16.09209 z"
       id="path4281"
       transform="scale(0.26458333)" />
    <path
       style="fill:#6d91ac;fill-opacity:1;stroke:#000000;stroke-width:0.0944882;stroke-opacity:0.530952;stop-color:#000000"
       d="m 727.5162,487.3609 c -2.15728,-1.72476 -4.28988,-3.39647 -5.87263,-5.48583 -3.7988,-6.01457 -1.99174,-9.78568 -0.0356,-14.64004 2.46766,-4.63958 7.10395,-6.38567 12.06906,-6.64785 5.68215,0.54057 7.80573,0.75759 12.56844,7.77199 l 0.76247,4.09128 0.6084,4.02288 -1.64157,3.6942 -2.03134,3.69387 -2.5,1.76258 -2.50001,1.76258 c -3.71936,1.58337 -8.65055,1.17912 -11.42718,-0.0257 z m 9.55133,-14.03719 c -0.91613,-2.07564 -3.15534,-2.57031 -3.65726,-2.60463 -0.73251,0.0151 -1.97743,0.51095 -2.92432,1.64177 -0.0487,0.0354 -0.60781,1.62971 -0.60781,1.62971 l -0.0663,1.57633 c 0.65545,1.93575 1.68363,2.6833 3.62814,2.87818 l 1.75078,-0.20461 c 1.84084,-1.4261 2.21456,-3.37104 1.87672,-4.91675 z"
       id="path13888"
       transform="scale(0.26458333)"
       sodipodi:nodetypes="cccccccccccccccccccccc" />
    <path
       style="mix-blend-mode:darken;fill:#2e8b57;fill-opacity:1;fill-rule:evenodd;stroke:#ffff00;stroke-width:0.0126947;stroke-opacity:1;stop-color:#000000"
       d="m 201.51741,125.17002 c -0.79139,-0.0429 -1.49184,-0.0792 -1.55656,-0.0806 l -0.11769,-0.002 -0.28635,-1.02558 -0.30681,-1.01682 -0.71668,-0.96061 -0.73715,-0.95185 -1.13005,-0.59762 -1.13005,-0.59761 -1.45,10e-4 -1.45,0.001 -1.06554,0.56999 -1.06553,0.56999 -0.55758,0.63097 -0.55758,0.63097 -0.43596,0.88386 -0.43598,0.88386 v 0.55724 0.55725 l -5.34881,-0.008 -5.34881,-0.008 -0.45089,-1.31311 -0.45088,-1.3131 -0.95641,-0.91479 c -0.52602,-0.50312 -1.0461,-0.99695 -1.15571,-1.09738 l -0.19932,-0.1826 -1.31887,-0.32656 c -0.72537,-0.17962 -1.3501,-0.32657 -1.38829,-0.32657 -0.0382,0 -0.72016,0.19505 -1.51549,0.43344 l -1.44609,0.43343 -1.0621,1.09553 -1.0621,1.09553 -0.24671,0.95229 c -0.1357,0.52376 -0.27764,1.07123 -0.31544,1.21662 l -0.0687,0.26431 h -1.08793 c -0.59837,0 -1.08794,-0.0118 -1.08794,-0.0263 0,-0.0145 -0.12401,-0.58433 -0.215,-1.26626 -0.13502,-1.01223 -0.2198,-1.3243 -0.17365,-1.72184 l 0.0111,-0.63643 0.79598,-0.0274 0.72673,0.0274 0.26162,-0.34898 0.37296,-0.41565 -0.0935,-0.49415 c -0.046,-0.34627 -0.0848,-0.6653 -0.0848,-0.6653 0,0 -0.46715,-0.0584 -1.07209,-0.10367 -0.60496,-0.0454 -1.16551,-0.11323 -1.17147,-0.11943 -0.006,-0.006 -0.0261,-0.41551 -0.0544,-0.94369 -0.0284,-0.52818 -0.0619,-1.00412 -0.0732,-1.06268 l -0.005,-0.11228 7.37735,0.0225 7.29174,0.0252 0.60153,-0.59387 0.50033,-0.50799 -0.0802,-3.04013 c -0.0439,-1.66668 -0.10345,-3.06976 -0.10345,-3.06976 -0.18317,0.0261 0.63704,-0.0599 1.21716,-0.0958 0.58011,-0.0359 1.17748,-0.0747 1.32749,-0.086 l 0.27273,-0.0207 0.008,3.43686 0.008,3.43686 0.67809,0.26851 0.67809,0.26851 9.96464,-0.0196 9.96462,-0.0196 v 1.01908 1.01908 l -0.38865,0.0579 c -0.31153,0.0464 -1.06137,0.19368 -1.76966,0.34751 l -0.0909,0.0198 v 0.63587 l -0.0184,0.52655 0.3994,0.38335 0.2356,0.25165 0.90558,-0.0107 0.84067,0.0107 0.0188,1.91166 c 0.0164,1.66806 -0.003,1.77327 -0.0579,1.76889 -0.0318,-0.002 -0.70538,-0.0398 -1.49676,-0.0827 z"
       id="path21509"
       sodipodi:nodetypes="cccccccccccccccccccccccsscssscccsscsscsccccccccccccccccscsccccccccccsccccccccsccc" />
  </g>
</svg>
