<?xml version="1.0" encoding="UTF-8" standalone="no"?>
<!-- Uploaded to: SVG Repo, www.svgrepo.com, Transformed by: SVG Repo Mixer Tools -->

<svg
   fill="#000000"
   version="1.1"
   id="Capa_1"
   width="800px"
   height="800px"
   viewBox="0 0 31.445 31.445"
   xml:space="preserve"
   transform="matrix(-1, 0, 0, 1, 0, 0)"
   sodipodi:docname="car_icon_active.svg"
   inkscape:version="1.1.2 (b8e25be833, 2022-02-05)"
   xmlns:inkscape="http://www.inkscape.org/namespaces/inkscape"
   xmlns:sodipodi="http://sodipodi.sourceforge.net/DTD/sodipodi-0.dtd"
   xmlns="http://www.w3.org/2000/svg"
   xmlns:svg="http://www.w3.org/2000/svg"><defs
   id="defs858" /><sodipodi:namedview
   id="namedview856"
   pagecolor="#ffffff"
   bordercolor="#cccccc"
   borderopacity="1"
   inkscape:pageshadow="0"
   inkscape:pageopacity="1"
   inkscape:pagecheckerboard="0"
   showgrid="false"
   inkscape:zoom="0.310625"
   inkscape:cx="194.76861"
   inkscape:cy="365.39235"
   inkscape:window-width="1284"
   inkscape:window-height="1040"
   inkscape:window-x="409"
   inkscape:window-y="205"
   inkscape:window-maximized="0"
   inkscape:current-layer="Capa_1" />

<g
   id="SVGRepo_bgCarrier"
   stroke-width="0" />

<g
   id="SVGRepo_tracerCarrier"
   stroke-linecap="round"
   stroke-linejoin="round" />

<g
   id="SVGRepo_iconCarrier"
   style="fill:#2e8b57;fill-opacity:1"> <g
   id="g852"
   style="fill:#2e8b57;fill-opacity:1"> <g
   id="g850"
   style="fill:#2e8b57;fill-opacity:1"> <path
   d="m 7.592,16.86 c -1.77,0 -3.203,1.434 -3.203,3.204 0,1.77 1.434,3.204 3.203,3.204 1.768,0 3.203,-1.434 3.203,-3.204 0,-1.77 -1.435,-3.204 -3.203,-3.204 z m 0,4.172 c -0.532,0 -0.968,-0.434 -0.968,-0.967 0,-0.533 0.436,-0.967 0.968,-0.967 0.531,0 0.966,0.434 0.966,0.967 0,0.533 -0.434,0.967 -0.966,0.967 z"
   id="path844"
   style="fill:#2e8b57;fill-opacity:1" /> <path
   d="M 30.915,17.439 30.391,13.177 C 30.288,12.359 29.573,11.759 28.748,11.804 L 27.6,11.868 24.036,8.657 C 23.692,8.348 23.249,8.178 22.787,8.178 L 15.546,8.177 c -1.625,0 -3.201,0.555 -4.468,1.573 l -4.04,3.246 -5.433,1.358 c -0.698,0.174 -1.188,0.802 -1.188,1.521 v 1.566 C 0.187,17.44 0,17.626 0,17.856 v 2.071 c 0,0.295 0.239,0.534 0.534,0.534 h 3.067 c -0.013,-0.133 -0.04,-0.26 -0.04,-0.396 0,-2.227 1.804,-4.029 4.03,-4.029 2.226,0 4.029,1.802 4.029,4.029 0,0.137 -0.028,0.264 -0.041,0.396 h 8.493 c -0.012,-0.133 -0.039,-0.26 -0.039,-0.396 0,-2.227 1.804,-4.029 4.029,-4.029 2.227,0 4.028,1.802 4.028,4.029 0,0.137 -0.026,0.264 -0.04,0.396 h 2.861 c 0.295,0 0.533,-0.239 0.533,-0.534 V 17.974 C 31.449,17.68 31.21,17.439 30.915,17.439 Z M 20.168,12.202 10.066,12.713 12,11.158 c 1.051,-0.845 2.357,-1.305 3.706,-1.305 h 4.462 z m 1.678,-0.085 V 9.854 h 0.657 c 0.228,0 0.447,0.084 0.616,0.237 l 2.062,1.856 z"
   id="path846"
   style="fill:#2e8b57;fill-opacity:1" /> <path
   d="m 24.064,16.86 c -1.77,0 -3.203,1.434 -3.203,3.204 0,1.77 1.434,3.204 3.203,3.204 1.769,0 3.203,-1.434 3.203,-3.204 0,-1.77 -1.434,-3.204 -3.203,-3.204 z m 0,4.172 c -0.533,0 -0.967,-0.434 -0.967,-0.967 0,-0.533 0.434,-0.967 0.967,-0.967 0.531,0 0.967,0.434 0.967,0.967 0,0.533 -0.435,0.967 -0.967,0.967 z"
   id="path848"
   style="fill:#2e8b57;fill-opacity:1" /> </g> </g> </g>

</svg>
