<?xml version="1.0" encoding="UTF-8" standalone="no"?>
<!-- Uploaded to: SVG Repo, www.svgrepo.com, Generator: SVG Repo Mixer Tools -->

<svg
   fill="#000000"
   height="892.8454"
   width="1009.9691"
   version="1.1"
   id="Capa_1"
   viewBox="0 0 290.3661 256.69305"
   xml:space="preserve"
   sodipodi:docname="heart.svg"
   inkscape:version="1.1.2 (b8e25be833, 2022-02-05)"
   xmlns:inkscape="http://www.inkscape.org/namespaces/inkscape"
   xmlns:sodipodi="http://sodipodi.sourceforge.net/DTD/sodipodi-0.dtd"
   xmlns="http://www.w3.org/2000/svg"
   xmlns:svg="http://www.w3.org/2000/svg"><defs
   id="defs36178"><filter
     inkscape:collect="always"
     style="color-interpolation-filters:sRGB"
     id="filter37835"
     x="-0.132193"
     y="-0.15490838"
     width="1.2643867"
     height="1.3098249"><feGaussianBlur
       inkscape:collect="always"
       stdDeviation="43.921565"
       id="feGaussianBlur37837" /></filter></defs><sodipodi:namedview
   id="namedview36176"
   pagecolor="#ffffff"
   bordercolor="#cccccc"
   borderopacity="1"
   inkscape:pageshadow="0"
   inkscape:pageopacity="1"
   inkscape:pagecheckerboard="0"
   showgrid="false"
   inkscape:zoom="0.519375"
   inkscape:cx="363.89892"
   inkscape:cy="435.13839"
   inkscape:window-width="1920"
   inkscape:window-height="1017"
   inkscape:window-x="-8"
   inkscape:window-y="-8"
   inkscape:window-maximized="1"
   inkscape:current-layer="Capa_1"
   fit-margin-top="0"
   fit-margin-left="0"
   fit-margin-right="0"
   fit-margin-bottom="0" />
<path
   d="m 243.75017,134.44331 -98.588,92.463 -98.587996,-92.463 c -22.949,-24.516 -21.672,-62.992 2.836,-85.935 l 2.227,-2.083 c 24.51,-22.942 62.983996,-21.674 85.933996,2.842 l 7.591,7.903 7.592,-7.903 c 22.949,-24.516 61.424,-25.784 85.936,-2.842 l 2.227,2.083 c 24.505,22.943 25.782,61.419 2.833,85.935 z"
   id="path36173" />
<path
   style="fill:#2e8b57;fill-rule:evenodd;stroke:#000200;stroke-width:0.363853;stroke-opacity:1;filter:url(#filter37835);stop-color:#000000"
   d="M 227.58387,579.84025 C 133.15221,491.25303 53.140323,415.52347 49.779682,411.55235 46.419041,407.58123 40.189595,399.13357 35.936469,392.77978 -13.450301,319.00037 -10.732547,221.75191 42.722198,149.96838 50.329021,139.75329 58.463041,130.92675 71.655463,118.57177 106.42908,86.005548 140.50808,68.819359 186.76294,60.522574 c 7.42769,-1.332314 14.79521,-1.732089 32.2503,-1.749958 19.49862,-0.01996 24.33504,0.284428 35.01624,2.203799 29.69999,5.336985 55.84424,15.595887 80.02587,31.401844 16.03717,10.482451 23.36852,16.843091 45.60717,39.568581 l 20.38813,20.83444 18.98791,-19.51705 c 21.30346,-21.89712 31.6747,-30.9626 46.42474,-40.579741 24.72833,-16.123074 50.69864,-26.351577 80.50722,-31.708074 10.69787,-1.922368 15.48719,-2.222349 35.01624,-2.193259 24.10506,0.03591 32.21153,0.949016 51.2341,5.770992 36.16237,9.166689 66.034,25.866076 95.7532,53.529712 18.14298,16.88811 28.94806,29.79891 40.38079,48.25034 23.38456,37.74064 34.58358,85.95293 30.1584,129.83336 -4.44115,44.03892 -23.32377,87.63477 -51.66092,119.27377 -5.58552,6.23634 -344.51801,324.2937 -346.31156,324.98196 -0.74074,0.28424 -72.25717,-66.11569 -172.9569,-160.58304 z"
   id="path36274"
   transform="matrix(0.2875,0,0,0.2875,30.162174,13.46131)" /></svg>
