<?xml version="1.0" encoding="UTF-8" standalone="no"?>
<!-- Uploaded to: SVG Repo, www.svgrepo.com, Generator: SVG Repo Mixer Tools -->

<svg
   fill="#000000"
   width="800px"
   height="800px"
   viewBox="0 0 30 30"
   version="1.1"
   id="svg7101"
   sodipodi:docname="motorbike_icon_active.svg"
   inkscape:version="1.1.2 (b8e25be833, 2022-02-05)"
   xmlns:inkscape="http://www.inkscape.org/namespaces/inkscape"
   xmlns:sodipodi="http://sodipodi.sourceforge.net/DTD/sodipodi-0.dtd"
   xmlns="http://www.w3.org/2000/svg"
   xmlns:svg="http://www.w3.org/2000/svg">
  <defs
     id="defs7105" />
  <sodipodi:namedview
     id="namedview7103"
     pagecolor="#ffffff"
     bordercolor="#cccccc"
     borderopacity="1"
     inkscape:pageshadow="0"
     inkscape:pageopacity="1"
     inkscape:pagecheckerboard="0"
     showgrid="false"
     inkscape:zoom="0.70710678"
     inkscape:cx="232.63813"
     inkscape:cy="463.86205"
     inkscape:window-width="1920"
     inkscape:window-height="1017"
     inkscape:window-x="-8"
     inkscape:window-y="-8"
     inkscape:window-maximized="1"
     inkscape:current-layer="svg7101" />
  <path
     id="path7099"
     style="fill:#2e8b57;stroke-width:0.37795276;stop-color:#000000;stroke:none;stroke-opacity:0.53095239"
     d="M 400 133.33398 A 26.669333 26.669333 0 0 0 392.48633 134.94336 C 392.33993 134.9786 392.11612 135.01306 391.97852 135.05078 A 26.669333 26.669333 0 0 0 375.91406 149.24219 C 375.72722 149.61314 375.43358 149.99768 375.28125 150.36133 C 375.23881 150.46264 375.22614 150.63019 375.18555 150.73633 A 26.669333 26.669333 0 0 0 375.18555 169.26367 C 375.22614 169.36981 375.23881 169.53736 375.28125 169.63867 C 375.43358 170.00232 375.72722 170.38686 375.91406 170.75781 A 26.669333 26.669333 0 0 0 391.98242 184.94922 C 392.11804 184.98632 392.33823 185.02194 392.48242 185.05664 A 26.669333 26.669333 0 0 0 400 186.66602 L 462.91602 186.66602 L 561.25 399.74023 C 528.34296 424.08253 506.66602 462.84039 506.66602 506.66602 C 506.66602 579.98812 566.67789 640 640 640 C 713.32211 640 773.33398 579.98812 773.33398 506.66602 C 773.33398 433.34391 713.32211 373.33398 640 373.33398 C 630.05419 373.33398 620.48486 374.74081 611.1582 376.86133 C 610.93798 376.84521 610.69037 376.84185 610.51172 376.80273 C 609.92079 376.41215 609.24462 375.70189 608.34961 374.31836 C 608.27038 374.17995 607.78625 373.15639 607.67188 372.94141 L 558.74219 266.98633 L 572.02734 266.72266 L 574.88086 266.66602 L 586.66602 266.66602 L 586.66602 186.66602 L 546.66602 186.66602 C 539.08666 186.66602 532.0779 188.87358 526.04102 192.54492 C 525.37776 192.73848 524.89192 192.8244 524.53516 192.83594 L 511.35352 164.32227 C 504.61528 149.68829 491.67002 139.1167 476.51953 135.10742 L 475.83008 134.78516 L 475.21875 134.78516 C 471.23562 133.83761 467.11289 133.33398 462.91602 133.33398 L 400 133.33398 z M 146.66602 266.66602 C 129.28259 266.66602 114.62697 277.83398 109.11523 293.33398 L 53.333984 293.33398 A 26.669333 26.669333 0 1 0 53.333984 346.66602 L 133.33398 346.66602 L 151.30273 346.66602 L 144.13867 371.85938 C 143.82246 372.1397 143.52962 372.46625 143.17773 372.6875 C 143.06808 372.74095 142.98834 372.81594 142.875 372.86719 C 142.64154 372.99976 142.35037 373.06857 142.09961 373.17969 C 141.58766 373.37689 140.98402 373.53632 140.39844 373.70117 C 138.06256 373.50768 135.72496 373.33398 133.33398 373.33398 C 59.813988 373.33398 -1.8947806e-14 433.14602 0 506.66602 C 0 580.18602 59.813988 640 133.33398 640 C 197.71701 640 251.56321 594.10988 263.95898 533.33398 L 371.92773 533.33398 L 373.33398 533.33398 A 26.686864 26.686864 0 0 0 374.58398 533.33398 L 400 533.33398 L 409.58398 533.33398 C 434.99732 533.33398 456.88836 515.40208 461.875 490.46875 L 480 400 L 343.125 400 L 312.65625 346.66602 L 346.66602 346.66602 L 506.66602 346.66602 L 492.5 314.47852 C 480.65593 287.55119 455.09759 269.45581 426.14258 266.96484 L 425.37109 266.86328 L 424.8418 266.86328 C 422.9967 266.73483 421.1401 266.66602 419.27148 266.66602 L 320 266.66602 C 313.96033 266.66602 308.18294 267.69375 302.80273 269.56641 L 302.67188 269.56836 L 302.55078 269.6543 C 293.25195 272.94436 285.15948 278.77731 278.99609 286.26758 L 278.60742 286.54102 L 153.22852 267.1875 L 153.07227 267.34375 C 150.9656 266.99708 148.87935 266.66602 146.66602 266.66602 z M 206.77148 346.66602 L 251.14648 346.66602 L 327.34375 480 L 168.69727 480 L 183.90625 426.66602 L 239.32227 426.66602 C 227.62689 411.20453 212.64208 398.35373 195.50195 389.10938 C 195.29904 388.82169 195.02261 388.51134 194.87109 388.24023 L 206.77148 346.66602 z M 639.73828 426.69336 C 640.13132 426.70101 640.48441 426.69937 640.93164 426.71289 C 643.30211 426.73965 645.65476 426.83819 647.96875 427.0625 C 648.09485 427.07159 648.21682 427.08241 648.3418 427.0918 C 688.85373 431.20557 720 464.98661 720 506.66602 C 720 551.16466 684.49864 586.66602 640 586.66602 C 595.50136 586.66602 560 551.16466 560 506.66602 C 560 484.02682 569.27802 463.81355 584.16602 449.32227 L 615.78125 517.86523 A 26.682362 26.682362 0 0 0 641.91602 532.49219 C 643.30989 532.37964 644.68937 532.14075 646.06445 531.77344 A 26.682362 26.682362 0 0 0 663.61719 517.11523 C 664.2134 515.85007 664.70199 514.54931 665.05469 513.20508 A 26.682362 26.682362 0 0 0 664.21875 495.46875 L 633.42773 428.72852 C 633.40066 428.63683 633.03115 427.81709 633.0293 427.7793 C 633.05498 427.69949 633.0827 427.62073 633.10352 427.53711 C 633.11835 427.46829 633.17785 427.41622 633.21094 427.35547 C 635.3892 427.1331 637.50651 426.72637 639.73828 426.69336 z M 125.52344 427.41992 C 125.70358 427.50305 125.93811 427.54134 126.0957 427.64453 C 126.78778 428.3507 127.17389 429.41633 127.25781 430.95117 L 108.85352 495.36523 A 26.669333 26.669333 0 0 0 106.92773 512.34375 A 26.669333 26.669333 0 0 0 139.47852 533.33398 L 206.96484 533.33398 C 207.70579 533.40999 207.97285 533.49135 208.34961 533.57227 C 197.23696 564.41485 167.95412 586.66602 133.33398 586.66602 C 89.227322 586.66602 53.333984 550.77268 53.333984 506.66602 C 53.333984 465.2291 85.111501 431.39131 125.52344 427.41992 z "
     transform="scale(0.0375)" />
  <path
     style="fill:#2e8b57;stroke:none;stroke-width:0.00295276;stroke-opacity:0.530952;stop-color:#000000"
     d=""
     id="path7766"
     transform="scale(0.0375)" />
</svg>
